<?xml version="1.0" standalone="no"?><!DOCTYPE svg PUBLIC "-//W3C//DTD SVG 1.1//EN" "http://www.w3.org/Graphics/SVG/1.1/DTD/svg11.dtd"><svg t="1619166657325" class="icon" viewBox="0 0 1077 1024" version="1.1" xmlns="http://www.w3.org/2000/svg" p-id="2977" xmlns:xlink="http://www.w3.org/1999/xlink" width="210.3515625" height="200"><defs><style type="text/css"></style></defs><path d="M851.005979 1024H224.479663A226.627368 226.627368 0 0 1 0.008084 795.486316L77.077558 0h923.755789L1077.902821 795.486316A230.130526 230.130526 0 0 1 851.005979 1024zM790.3744 130.964211A57.397895 57.397895 0 0 0 734.323874 188.631579a58.206316 58.206316 0 0 0 26.947368 50.122105v23.713684h-1.347368a240.909474 240.909474 0 0 1-236.058948 212.07579 242.526316 242.526316 0 0 1-236.058947-212.07579h-2.425263v-24.252631a58.206316 58.206316 0 0 0 26.947368-50.122105 57.397895 57.397895 0 0 0-54.972631-57.128421A57.397895 57.397895 0 0 0 201.035453 188.631579a61.44 61.44 0 0 0 26.947368 50.122105v35.84h2.425263a296.421053 296.421053 0 0 0 292.378948 257.077895 298.576842 298.576842 0 0 0 292.378947-257.077895h2.425263V238.214737a57.397895 57.397895 0 0 0 26.947369-47.696842 57.936842 57.936842 0 0 0-56.050527-59.553684z" fill="#6478FF" p-id="2978"></path></svg>